<svg width="300" height="300" xmlns="http://www.w3.org/2000/svg" xmlns:xlink="http://www.w3.org/1999/xlink" xml:space="preserve" overflow="hidden"><g transform="translate(-267 -216)"><g><g><path d="M25.4943 30.993C25.4943 39.5017 24.0471 47.1813 21.7264 52.7152 20.5657 55.483 19.1963 57.6907 17.7011 59.1984 16.2079 60.7047 14.6186 61.4861 12.9971 61.4861 11.3755 61.4861 9.78628 60.7047 8.293 59.1984 6.79792 57.6907 5.42852 55.483 4.26775 52.7152 1.94711 47.1813 0.499887 39.5017 0.499887 30.993 0.499887 22.4845 1.94711 14.8048 4.26775 9.27096 5.42852 6.503 6.79792 4.29552 8.293 2.78754 9.78628 1.28143 11.3755 0.499887 12.9971 0.499887 14.6186 0.499887 16.2079 1.28143 17.7011 2.78754 19.1963 4.29552 20.5657 6.503 21.7264 9.27096 24.0471 14.8048 25.4943 22.4845 25.4943 30.993Z" stroke="#000000" stroke-width="0.999776" fill="none" transform="matrix(1.00756 0 0 1 505.89 316.866)"/><path d="M0.997763 6.79963C4.83357-3.70813 7.39077 2.42141 8.18987 6.79963 8.18987 10.0103 7.71039 15.9064 5.79252 13.8048 3.39515 11.1779 12.9847 16.4319 10.5872 21.6857 8.66937 25.8888 6.59165 26.9396 5.79252 26.9396" stroke="#000000" stroke-width="0.997763" fill="none" transform="matrix(1.02081 0 0 1 512.874 333.745)"/><path d="M25.4016 30.8802C25.4016 39.3581 23.9597 47.0099 21.6474 52.5233 20.4909 55.2812 19.1265 57.4809 17.6368 58.9834 16.1489 60.4838 14.5655 61.2625 12.9498 61.2625 11.3342 61.2625 9.75069 60.4838 8.26286 58.9834 6.77319 57.4809 5.40878 55.2812 4.25223 52.5233 1.94003 47.0099 0.49807 39.3581 0.49807 30.8802 0.49807 22.4027 1.94003 14.751 4.25223 9.23727 5.40878 6.47936 6.77319 4.2799 8.26286 2.77741 9.75069 1.27677 11.3342 0.49807 12.9498 0.49807 14.5655 0.49807 16.1489 1.27677 17.6368 2.77741 19.1265 4.2799 20.4909 6.47936 21.6474 9.23727 23.9597 14.751 25.4016 22.4027 25.4016 30.8802Z" stroke="#000000" stroke-width="0.996141" fill="none" transform="matrix(1 0 0 1.00364 301.894 316.866)"/><path d="M10.937 6.77587C7.1146-3.69515 4.56637 2.41294 3.77003 6.77587 3.77003 9.97532 4.24783 15.8508 6.15902 13.7566 8.54802 11.1388-1.00795 16.3744 1.38103 21.6098 3.29222 25.7983 5.36268 26.8454 6.15902 26.8454" stroke="#000000" stroke-width="0.994273" fill="none" transform="matrix(1 0 0 1.00351 308.878 333.745)"/></g></g></g></svg>