<svg width="300" height="300" xmlns="http://www.w3.org/2000/svg" xmlns:xlink="http://www.w3.org/1999/xlink" xml:space="preserve" overflow="hidden"><g transform="translate(-452 -183)"><g><g><path d="M37.9998 40.9993C40.4997 37.9994 35.9998 36.5999 1.99999 50.9998 6.27159 43.7069 10.3993 38.6706 22.4999 24.5001 50.4911-1.88597 88.8177 1.27586 90.9994 1.00022 93.1811 0.72458 136.336 7.37718 155.499 36.9994 159.193 42.7088 150.499 40.9993 147.499 41.9997L135.499 49.9993C131.666 49.9993 124.099 48.1993 124.499 40.9993 124.899 33.7994 116.332 35.3328 111.999 36.9994 108.166 41.3327 99.1994 49.9993 93.9994 49.9993 88.7994 49.9993 86.4995 43.9993 85.9995 40.9993 81.9995 39.6661 71.6995 38.7994 62.4996 45.9993 50.9997 54.9993 62.4996 40.9993 56.4996 36.9994 50.4997 32.9994 50.4997 40.9993 42.9997 45.9993 36.9998 49.9993 37.1665 44.3326 37.9998 40.9993Z" stroke="#000000" fill="none" transform="matrix(1 0 0 1.00003 517.293 225.998)"/></g></g></g></svg>