<svg width="300" height="300" xmlns="http://www.w3.org/2000/svg" xmlns:xlink="http://www.w3.org/1999/xlink" xml:space="preserve" overflow="hidden"><g transform="translate(-286 -227)"><g><g><path d="M32.4999 46.9998C58.4998 28.5999 68.333 14.9999 69.9997 10.5M0.499998 67.4997C151.299 66.2997 165.999 36.5002 145.999 18.5 108.5-8.49996 56.0998-1.0999 36.4999 18.5002 16.8999 38.1002 0.499998 59.8331 0.499998 67.4997Z" stroke="#000000" fill="none" transform="matrix(1 0 0 1.00002 344.84 270.222)"/><path d="M58.4998 50.9998C85.2997 42.5998 95.9996 31.8332 97.9996 27.4999" stroke="#000000" fill="none" transform="matrix(1 0 0 1.00002 344.84 270.222)"/><path d="M104.5 54.4998C112.9 46.4998 121.333 30.4999 124.499 23.4999" stroke="#000000" fill="none" transform="matrix(1 0 0 1.00002 344.84 270.222)"/></g></g></g></svg>