<svg width="300" height="300" xmlns="http://www.w3.org/2000/svg" xmlns:xlink="http://www.w3.org/1999/xlink" xml:space="preserve" overflow="hidden"><g transform="translate(-271 -242)"><g><g><g><path d="M0.472803 0.835901 12.5061 34.9302" stroke="#000000" stroke-width="1.00277" fill="none" transform="matrix(1.00127 0 0 1 354.404 283.043)"/><path d="M0.4351 0 0.4351 27.8464" stroke="#000000" stroke-width="0.870199" fill="none" transform="matrix(1 0 0 1.14581 397.333 269.12)"/><path d="M0.434847 0.85612 1.30499 27.8307" stroke="#000000" stroke-width="0.870147" fill="none" transform="matrix(1 0 0 1.14587 378.479 275.792)"/><path d="M8.47016 0.117581 0.485024 33.0562" stroke="#000000" stroke-width="0.998142" fill="none" transform="matrix(1.00095 0 0 1 435.91 280.433)"/><path d="M0.4351 0 0.4351 33.9378" stroke="#000000" stroke-width="0.870199" fill="none" transform="matrix(1 0 0 1.14527 419.957 268.25)"/><path d="M0.496673 33.4708 4.44054 0.92828" stroke="#000000" stroke-width="0.986184" fill="none" transform="matrix(1 0 0 1.01212 467.527 282.173)"/><path d="M0.501119 33.8915 3.49555 0.952957" stroke="#000000" stroke-width="0.998139" fill="none" transform="matrix(1.01707 0 0 1 452.734 274.921)"/></g></g></g></g></svg>