<svg width="300" height="300" xmlns="http://www.w3.org/2000/svg" xmlns:xlink="http://www.w3.org/1999/xlink" xml:space="preserve" overflow="hidden"><g transform="translate(-193 -226)"><g><g><g><path d="M1.00355 7.52664C1.00355 7.80376 0.778898 8.02841 0.501776 8.02841 0.224653 8.02841 -5.57084e-17 7.80376 -5.57084e-17 7.52664 -1.67125e-16 7.24953 0.224653 7.02485 0.501776 7.02485 0.778898 7.02485 1.00355 7.24953 1.00355 7.52664Z" transform="matrix(1.00178 0 0 1 277.521 388.061)"/><path d="M11.0391 17.5621C11.0391 17.8393 10.8144 18.0639 10.5373 18.0639 10.2602 18.0639 10.0355 17.8393 10.0355 17.5621 10.0355 17.285 10.2602 17.0604 10.5373 17.0604 10.8144 17.0604 11.0391 17.285 11.0391 17.5621Z" transform="matrix(1.00178 0 0 1 277.521 388.061)"/><path d="M14.0497 0.501776C14.0497 0.778898 13.8251 1.00355 13.5479 1.00355 13.2708 1.00355 13.0462 0.778898 13.0462 0.501776 13.0462 0.224653 13.2708 -5.57084e-17 13.5479 -5.57084e-17 13.8251 -1.67125e-16 14.0497 0.224653 14.0497 0.501776Z" transform="matrix(1.00178 0 0 1 277.521 388.061)"/><path d="M3.01065 27.5977C3.01065 27.8748 2.786 28.0995 2.50888 28.0995 2.23176 28.0995 2.0071 27.8748 2.0071 27.5977 2.0071 27.3205 2.23176 27.0959 2.50888 27.0959 2.786 27.0959 3.01065 27.3205 3.01065 27.5977Z" transform="matrix(1.00178 0 0 1 277.521 388.061)"/><path d="M31.1102 4.51597C31.1102 4.79312 30.8855 5.01776 30.6082 5.01776 30.3311 5.01776 30.1065 4.79312 30.1065 4.51597 30.1065 4.23885 30.3311 4.0142 30.6082 4.0142 30.8855 4.0142 31.1102 4.23885 31.1102 4.51597Z" transform="matrix(1.00178 0 0 1 277.521 388.061)"/><path d="M16.0568 25.5906C16.0568 25.8677 15.8322 26.0923 15.5551 26.0923 15.2779 26.0923 15.0533 25.8677 15.0533 25.5906 15.0533 25.3135 15.2779 25.0888 15.5551 25.0888 15.8322 25.0888 16.0568 25.3135 16.0568 25.5906Z" transform="matrix(1.00178 0 0 1 277.521 388.061)"/><path d="M25.0888 17.5621C25.0888 17.8393 24.8641 18.0639 24.587 18.0639 24.3099 18.0639 24.0853 17.8393 24.0853 17.5621 24.0853 17.285 24.3099 17.0604 24.587 17.0604 24.8641 17.0604 25.0888 17.285 25.0888 17.5621Z" transform="matrix(1.00178 0 0 1 277.521 388.061)"/><path d="M33.1172 28.6012C33.1172 28.8783 32.8925 29.103 32.6154 29.103 32.3384 29.103 32.1137 28.8783 32.1137 28.6012 32.1137 28.3241 32.3384 28.0995 32.6154 28.0995 32.8925 28.0995 33.1172 28.3241 33.1172 28.6012Z" transform="matrix(1.00178 0 0 1 277.521 388.061)"/><path d="M0.996522 0.49826C0.996522 0.773442 0.773442 0.996522 0.49826 0.996522 0.223079 0.996522 -5.53181e-17 0.773442 -5.53181e-17 0.49826 -1.65954e-16 0.223079 0.223079 -5.53181e-17 0.49826 -5.53181e-17 0.773442 -1.65954e-16 0.996522 0.223079 0.996522 0.49826Z" transform="matrix(-1 0 0 1.00706 408.479 395.087)"/><path d="M0.996522 0.49826C0.996522 0.773442 0.773442 0.996522 0.49826 0.996522 0.223079 0.996522 -5.53181e-17 0.773442 -5.53181e-17 0.49826 -1.65954e-16 0.223079 0.223079 -5.53181e-17 0.49826 -5.53181e-17 0.773442 -1.65954e-16 0.996522 0.223079 0.996522 0.49826Z" transform="matrix(-1 0 0 1.00706 398.515 405.122)"/><path d="M0.996522 0.49826C0.996522 0.773442 0.773442 0.996522 0.49826 0.996522 0.223079 0.996522 -5.53181e-17 0.773442 -5.53181e-17 0.49826 -1.65954e-16 0.223079 0.223079 -5.53181e-17 0.49826 -5.53181e-17 0.773442 -1.65954e-16 0.996522 0.223079 0.996522 0.49826Z" transform="matrix(-1 0 0 1.00706 395.523 388.061)"/><path d="M0.996522 0.49826C0.996522 0.773442 0.773442 0.996522 0.49826 0.996522 0.223079 0.996522 -5.53181e-17 0.773442 -5.53181e-17 0.49826 -1.65954e-16 0.223079 0.223079 -5.53181e-17 0.49826 -5.53181e-17 0.773442 -1.65954e-16 0.996522 0.223079 0.996522 0.49826Z" transform="matrix(-1 0 0 1.00706 406.486 415.156)"/><path d="M0.996522 0.49826C0.996522 0.773442 0.773442 0.996522 0.49826 0.996522 0.223079 0.996522 -5.53181e-17 0.773442 -5.53181e-17 0.49826 -1.65954e-16 0.223079 0.223079 -5.53181e-17 0.49826 -5.53181e-17 0.773442 -1.65954e-16 0.996522 0.223079 0.996522 0.49826Z" transform="matrix(-1 0 0 1.00706 378.583 392.075)"/><path d="M0.996522 0.49826C0.996522 0.773442 0.773442 0.996522 0.49826 0.996522 0.223079 0.996522 -5.53181e-17 0.773442 -5.53181e-17 0.49826 -1.65954e-16 0.223079 0.223079 -5.53181e-17 0.49826 -5.53181e-17 0.773442 -1.65954e-16 0.996522 0.223079 0.996522 0.49826Z" transform="matrix(-1 0 0 1.00706 393.533 413.151)"/><path d="M0.996522 0.49826C0.996522 0.773442 0.773442 0.996522 0.49826 0.996522 0.223079 0.996522 -5.53181e-17 0.773442 -5.53181e-17 0.49826 -1.65954e-16 0.223079 0.223079 -5.53181e-17 0.49826 -5.53181e-17 0.773442 -1.65954e-16 0.996522 0.223079 0.996522 0.49826Z" transform="matrix(-1 0 0 1.00706 384.563 405.122)"/><path d="M0.996522 0.49826C0.996522 0.773442 0.773442 0.996522 0.49826 0.996522 0.223079 0.996522 -5.53181e-17 0.773442 -5.53181e-17 0.49826 -1.65954e-16 0.223079 0.223079 -5.53181e-17 0.49826 -5.53181e-17 0.773442 -1.65954e-16 0.996522 0.223079 0.996522 0.49826Z" transform="matrix(-1 0 0 1.00706 376.589 416.16)"/></g></g></g></g></svg>