<svg width="300" height="300" xmlns="http://www.w3.org/2000/svg" xmlns:xlink="http://www.w3.org/1999/xlink" xml:space="preserve" overflow="hidden"><g transform="translate(-363 -210)"><g><g><path d="M320.492 454.989C320.492 456.322 319.592 459.489 315.992 461.489 312.392 463.489 310.16 462.989 309.493 462.489 306.326 460.989 300.493 455.489 301.993 447.489 303.993 443.489 306.993 439.489 306.993 440.489" stroke="#000000" fill="none" transform="matrix(1 0 0 1.0001 192.008 -5.4238)"/><path d="M321.25 454.989C321.25 456.322 322.15 459.489 325.75 461.489 329.35 463.489 331.583 462.989 332.25 462.489 335.417 460.989 341.25 455.489 339.75 447.489 337.75 443.489 334.75 439.489 334.75 440.489" stroke="#000000" fill="none" transform="matrix(1 0 0 1.0001 192.008 -5.4238)"/></g></g></g></svg>