<svg width="300" height="300" xmlns="http://www.w3.org/2000/svg" xmlns:xlink="http://www.w3.org/1999/xlink" xml:space="preserve" overflow="hidden"><g transform="translate(-295 -216)"><g><g><path d="M1.00007 12.019C1.00007 12.019 5.50039 0.518172 5.50039 1.0182 5.50039 1.51824 7.25052 6.01857 7.25052 6.01857 7.25052 6.01857 9.00064 11.5189 9.00064 11.0189 9.00064 10.5189 12.5009 0.518197 12.5009 1.0182 12.5009 1.51822 15.0011 11.5189 15.0011 12.019 15.0011 12.519 18.5013 0.518103 18.5013 1.0182 18.5013 1.51831 21.0015 11.5189 21.0015 12.019 21.0015 12.519 24.5018 0.518103 24.5018 1.0182 24.5018 1.51831 27.502 12.519 27.502 12.519" stroke="#000000" stroke-linecap="round" fill="none" transform="matrix(1 0 0 1 431.26 392.998)"/></g></g></g></svg>