<svg width="300" height="300" xmlns="http://www.w3.org/2000/svg" xmlns:xlink="http://www.w3.org/1999/xlink" xml:space="preserve" overflow="hidden"><g transform="translate(-331 -219)"><g><g><path d="M37.3671 14.4486C37.3671 18.2502 35.3492 21.7269 32.0179 24.2693 28.686 26.812 24.0613 28.399 18.9327 28.399 13.804 28.399 9.17935 26.812 5.84752 24.2693 2.51613 21.7269 0.49823 18.2502 0.49823 14.4486 0.49823 10.647 2.51613 7.17034 5.84752 4.62797 9.17935 2.08527 13.804 0.49823 18.9327 0.49823 24.0613 0.49823 28.686 2.08527 32.0179 4.62797 35.3492 7.17034 37.3671 10.647 37.3671 14.4486Z" stroke="#000000" stroke-width="0.996456" fill="#FFFFFF" transform="matrix(1.0021 0 0 1 430.359 327.568)"/><path d="M3.61454 14.3899C3.61454 16.4043 3.79087 18.3186 3.98211 20.0458 4.02998 20.4782 4.07855 20.8971 4.12554 21.3025 4.26757 22.5276 4.39504 23.6268 4.44445 24.5906 4.511 25.8881 4.42598 26.8229 4.11956 27.4235 3.97441 27.7081 3.78173 27.9123 3.52523 28.0511 3.26277 28.193 2.9014 28.2836 2.39658 28.2836 1.89088 28.2836 1.53967 28.1928 1.29253 28.0545 1.0528 27.9203 0.877405 27.723 0.750206 27.4435 0.478782 26.8469 0.441045 25.9141 0.561516 24.6108 0.639279 23.7696 0.775395 22.8314 0.925656 21.7959 1.00574 21.244 1.08983 20.6644 1.17126 20.0571 1.40324 18.3266 1.60716 16.4089 1.60716 14.3899 1.60716 12.371 1.40324 10.4532 1.17126 8.72279 1.08983 8.11542 1.00574 7.53583 0.925656 6.98394 0.775395 5.94837 0.639279 5.01029 0.561516 4.16903 0.441045 2.86576 0.478782 1.93287 0.750206 1.33634 0.877405 1.05678 1.0528 0.859521 1.29253 0.725372 1.53967 0.587079 1.89088 0.496205 2.39658 0.496205 2.9014 0.496205 3.26277 0.586767 3.52523 0.728773 3.78173 0.867563 3.97441 1.07181 4.11956 1.35634 4.42598 1.95696 4.511 2.89179 4.44445 4.18929 4.39504 5.15305 4.26757 6.25234 4.12554 7.47742 4.07855 7.88267 4.02998 8.3017 3.98211 8.73412 3.79087 10.4613 3.61454 12.3755 3.61454 14.3899Z" stroke="#000000" stroke-width="0.992409" fill="#FFFFFF" transform="matrix(1 0 0 1.00408 446.996 327.568)"/><path d="M0.875704 0.437852C0.875704 0.679669 0.679669 0.875704 0.437852 0.875704 0.196033 0.875704 0 0.679669 0 0.437852 0 0.196033 0.196033 0 0.437852 0 0.679669 0 0.875704 0.196033 0.875704 0.437852Z" transform="matrix(1.33316 0 0 1 448.747 333.114)"/><path d="M1.16746 0.583731C1.16746 0.906114 0.906114 1.16746 0.583731 1.16746 0.261345 1.16746 0 0.906114 0 0.583731 0 0.261345 0.261345 0 0.583731 0 0.906114 0 1.16746 0.261345 1.16746 0.583731Z" transform="matrix(1 0 0 1.00012 448.747 352.379)"/><path d="M37.7333 14.5902C37.7333 18.4291 35.6957 21.9399 32.3317 24.5072 28.9671 27.0748 24.2972 28.6774 19.1182 28.6774 13.9393 28.6774 9.26931 27.0748 5.90482 24.5072 2.54078 21.9399 0.50311 18.4291 0.50311 14.5902 0.50311 10.7514 2.54078 7.24062 5.90482 4.67335 9.26931 2.1057 13.9393 0.50311 19.1182 0.50311 24.2972 0.50311 28.9671 2.1057 32.3317 4.67335 35.6957 7.24062 37.7333 10.7514 37.7333 14.5902Z" stroke="#000000" stroke-width="1.00622" fill="#FFFFFF" transform="matrix(1 0 0 1.00029 493.405 327.86)"/><path d="M3.61454 14.3899C3.61454 16.4043 3.79087 18.3186 3.98211 20.0458 4.02998 20.4782 4.07855 20.8971 4.12554 21.3025 4.26757 22.5276 4.39504 23.6268 4.44445 24.5906 4.511 25.8881 4.42598 26.8229 4.11956 27.4235 3.97441 27.7081 3.78173 27.9123 3.52523 28.0511 3.26277 28.193 2.9014 28.2836 2.39658 28.2836 1.89088 28.2836 1.53967 28.1928 1.29253 28.0545 1.0528 27.9203 0.877405 27.723 0.750206 27.4435 0.478782 26.8469 0.441045 25.9141 0.561516 24.6108 0.639279 23.7696 0.775395 22.8314 0.925656 21.7959 1.00574 21.244 1.08983 20.6644 1.17126 20.0571 1.40324 18.3266 1.60716 16.4089 1.60716 14.3899 1.60716 12.371 1.40324 10.4532 1.17126 8.72279 1.08983 8.11542 1.00574 7.53583 0.925656 6.98394 0.775395 5.94837 0.639279 5.01029 0.561516 4.16903 0.441045 2.86576 0.478782 1.93287 0.750206 1.33634 0.877405 1.05678 1.0528 0.859521 1.29253 0.725372 1.53967 0.587079 1.89088 0.496205 2.39658 0.496205 2.9014 0.496205 3.26277 0.586767 3.52523 0.728773 3.78173 0.867563 3.97441 1.07181 4.11956 1.35634 4.42598 1.95696 4.511 2.89179 4.44445 4.18929 4.39504 5.15305 4.26757 6.25234 4.12554 7.47742 4.07855 7.88267 4.02998 8.3017 3.98211 8.73412 3.79087 10.4613 3.61454 12.3755 3.61454 14.3899Z" stroke="#000000" stroke-width="0.992409" fill="#FFFFFF" transform="matrix(1 0 0 1.01422 510.626 327.86)"/><path d="M354.636 331.14C354.636 331.382 354.441 331.577 354.198 331.577 353.956 331.577 353.76 331.382 353.76 331.14 353.76 330.897 353.956 330.702 354.198 330.702 354.441 330.702 354.636 330.897 354.636 331.14Z" transform="matrix(1 0 0 1.00003 158.909 2.4012)"/><path d="M354.636 350.696C354.636 350.938 354.441 351.134 354.198 351.134 353.956 351.134 353.76 350.938 353.76 350.696 353.76 350.453 353.956 350.258 354.198 350.258 354.441 350.258 354.636 350.453 354.636 350.696Z" transform="matrix(1 0 0 1.00003 158.909 2.4012)"/></g></g></g></svg>