<svg width="300" height="300" xmlns="http://www.w3.org/2000/svg" xmlns:xlink="http://www.w3.org/1999/xlink" xml:space="preserve" overflow="hidden"><g transform="translate(-235 -218)"><g><g><path d="M59.1521 17.8947C59.1521 22.593 55.9754 26.9315 50.658 30.1219 45.3503 33.3065 37.9857 35.2922 29.8245 35.2922 21.6634 35.2922 14.2988 33.3065 8.99114 30.1219 3.6736 26.9315 0.497076 22.593 0.497076 17.8947 0.497076 13.1965 3.6736 8.85802 8.99114 5.66747 14.2988 2.48289 21.6634 0.497076 29.8245 0.497076 37.9857 0.497076 45.3503 2.48289 50.658 5.66747 55.9754 8.85802 59.1521 13.1965 59.1521 17.8947Z" stroke="#000000" stroke-width="0.994152" fill="#FFFFFF" transform="matrix(1 0 0 1.00321 355.175 305.9)"/><path d="M29.3273 16.9005C29.3273 26.0202 22.8169 33.3038 14.9122 33.3038 7.0076 33.3038 0.497073 26.0202 0.497073 16.9005 0.497073 7.78084 7.0076 0.497073 14.9122 0.497073 22.8169 0.497073 29.3273 7.78084 29.3273 16.9005Z" stroke="#000000" stroke-width="0.99415" fill="#FFFFFF" transform="matrix(1 0 0 1.00226 370.233 306.769)"/><path d="M7.60066 3.04026C7.60066 3.68454 7.25363 4.30649 6.61605 4.78468 5.97829 5.26299 5.07403 5.57382 4.05368 5.57382 3.03331 5.57382 2.12906 5.26299 1.49132 4.78468 0.853732 4.30649 0.506711 3.68454 0.506711 3.04026 0.506711 2.39597 0.853732 1.77403 1.49132 1.29584 2.12906 0.817533 3.03331 0.506711 4.05368 0.506711 5.07403 0.506711 5.97829 0.817533 6.61605 1.29584 7.25363 1.77403 7.60066 2.39597 7.60066 3.04026Z" stroke="#000000" stroke-width="1.01342" fill="#FFFFFF" transform="matrix(1.00004 0 0 1 380.946 320.667)"/></g></g></g></svg>