<svg width="300" height="300" xmlns="http://www.w3.org/2000/svg" xmlns:xlink="http://www.w3.org/1999/xlink" xml:space="preserve" overflow="hidden"><g transform="translate(-269 -147)"><g><g><path d="M37.3599 5.47944C37.3599 5.98625 37.0016 6.57673 36.089 7.20121 35.1927 7.81465 33.8632 8.38691 32.1752 8.8755 28.8063 9.85073 24.1229 10.4608 18.929 10.4608 13.7351 10.4608 9.05168 9.85073 5.68269 8.8755 3.99483 8.38691 2.6652 7.81465 1.76887 7.20121 0.856418 6.57673 0.498132 5.98625 0.498132 5.47944 0.498132 4.97264 0.856418 4.38216 1.76887 3.75768 2.6652 3.14424 3.99483 2.57196 5.68269 2.08337 9.05168 1.10814 13.7351 0.498132 18.929 0.498132 24.1229 0.498132 28.8063 1.10814 32.1752 2.08337 33.8632 2.57196 35.1927 3.14424 36.089 3.75768 37.0016 4.38216 37.3599 4.97264 37.3599 5.47944Z" stroke="#000000" stroke-width="0.996263" fill="#FFFFFF" transform="matrix(1.01724 0 0 1 435.243 277.334)"/><path d="M9.69192 4.59091C9.69192 6.79544 7.68838 8.6717 5.10101 8.6717 2.51363 8.6717 0.510101 6.79544 0.510101 4.59091 0.510101 2.38636 2.51363 0.510101 5.10101 0.510101 7.68838 0.510101 9.69192 2.38636 9.69192 4.59091Z" stroke="#000000" stroke-width="1.0202" fill="#FFFFFF" transform="matrix(1.01629 0 0 1 457.164 278.222)"/><path d="M1.77708 0.88854C1.77708 1.37927 1.37927 1.77708 0.88854 1.77708 0.397813 1.77708 -9.86477e-17 1.37927 -9.86477e-17 0.88854 -2.95943e-16 0.397813 0.397813 -9.86477e-17 0.88854 -9.86477e-17 1.37927 -2.95943e-16 1.77708 0.397813 1.77708 0.88854Z" transform="matrix(1.16692 0 0 1 463.385 280.888)"/><path d="M37.3599 5.47944C37.3599 5.98625 37.0016 6.57673 36.089 7.20121 35.1927 7.81465 33.8632 8.38691 32.1752 8.8755 28.8063 9.85073 24.1229 10.4608 18.929 10.4608 13.7351 10.4608 9.05168 9.85073 5.68269 8.8755 3.99483 8.38691 2.6652 7.81465 1.76887 7.20121 0.856418 6.57673 0.498132 5.98625 0.498132 5.47944 0.498132 4.97264 0.856418 4.38216 1.76887 3.75768 2.6652 3.14424 3.99483 2.57196 5.68269 2.08337 9.05168 1.10814 13.7351 0.498132 18.929 0.498132 24.1229 0.498132 28.8063 1.10814 32.1752 2.08337 33.8632 2.57196 35.1927 3.14424 36.089 3.75768 37.0016 4.38216 37.3599 4.97264 37.3599 5.47944Z" stroke="#000000" stroke-width="0.996263" fill="#FFFFFF" transform="matrix(1.02506 0 0 1 364.739 277.334)"/><path d="M9.56826 4.53235C9.56826 6.70875 7.59028 8.56107 5.03591 8.56107 2.48156 8.56107 0.503591 6.70875 0.503591 4.53235 0.503591 2.35592 2.48156 0.503591 5.03591 0.503591 7.59028 0.503591 9.56826 2.35592 9.56826 4.53235Z" stroke="#000000" stroke-width="1.00719" fill="#FFFFFF" transform="matrix(1 0 0 1.01293 371.257 278.518)"/><path d="M198.446 314.107C198.446 314.679 197.982 315.144 197.409 315.144 196.837 315.144 196.372 314.679 196.372 314.107 196.372 313.535 196.837 313.07 197.409 313.07 197.982 313.07 198.446 313.535 198.446 314.107Z" transform="matrix(1.00016 0 0 1 177.52 -29.517)"/></g></g></g></svg>